<?xml version="1.0" encoding="UTF-8" standalone="no"?>
<!-- Created with Inkscape (http://www.inkscape.org/) -->

<svg
   width="256"
   height="256"
   viewBox="0 0 67.73333 67.733335"
   version="1.1"
   id="svg1"
   inkscape:version="1.3 (0e150ed6c4, 2023-07-21)"
   sodipodi:docname="icon.svg"
   xml:space="preserve"
   inkscape:export-filename="icon.png"
   inkscape:export-xdpi="96"
   inkscape:export-ydpi="96"
   xmlns:inkscape="http://www.inkscape.org/namespaces/inkscape"
   xmlns:sodipodi="http://sodipodi.sourceforge.net/DTD/sodipodi-0.dtd"
   xmlns:xlink="http://www.w3.org/1999/xlink"
   xmlns="http://www.w3.org/2000/svg"
   xmlns:svg="http://www.w3.org/2000/svg"><sodipodi:namedview
     id="namedview1"
     pagecolor="#505050"
     bordercolor="#ffffff"
     borderopacity="1"
     inkscape:showpageshadow="0"
     inkscape:pageopacity="0"
     inkscape:pagecheckerboard="1"
     inkscape:deskcolor="#505050"
     inkscape:document-units="px"
     inkscape:zoom="2.2677135"
     inkscape:cx="89.296994"
     inkscape:cy="147.94638"
     inkscape:window-width="1920"
     inkscape:window-height="1017"
     inkscape:window-x="-8"
     inkscape:window-y="-8"
     inkscape:window-maximized="1"
     inkscape:current-layer="layer1" /><defs
     id="defs1"><linearGradient
       id="linearGradient56"
       inkscape:collect="always"><stop
         style="stop-color:#429aff;stop-opacity:1;"
         offset="0"
         id="stop56" /><stop
         style="stop-color:#24768a;stop-opacity:1;"
         offset="1"
         id="stop57" /></linearGradient><inkscape:path-effect
       effect="fillet_chamfer"
       id="path-effect55"
       is_visible="true"
       lpeversion="1"
       nodesatellites_param="F,0,0,1,0,8.2349805,0,1 @ F,0,0,1,0,0,0,1 @ F,0,0,1,0,0,0,1 @ F,0,0,1,0,0,0,1 @ F,0,0,1,0,0,0,1 @ F,0,0,1,0,0,0,1 @ F,0,0,1,0,0,0,1 @ F,0,0,1,0,0,0,1 @ F,0,0,1,0,0,0,1 @ F,0,0,1,0,0,0,1 @ F,0,0,1,0,0,0,1 @ F,0,0,1,0,0,0,1 @ F,0,0,1,0,0,0,1 @ F,0,0,1,0,0,0,1 @ F,0,0,1,0,0,0,1 @ F,0,0,1,0,0,0,1 @ F,0,0,1,0,0,0,1 @ F,0,0,1,0,0,0,1 @ F,0,0,1,0,0,0,1 @ F,0,0,1,0,0,0,1 @ F,0,0,1,0,0,0,1 @ F,0,0,1,0,0,0,1 @ F,0,0,1,0,0,0,1 @ F,0,0,1,0,0,0,1 @ F,0,0,1,0,0,0,1 @ F,0,0,1,0,0,0,1 @ F,0,0,1,0,0,0,1 @ F,0,0,1,0,0,0,1 @ F,0,0,1,0,0,0,1 @ F,0,0,1,0,0,0,1 @ F,0,1,1,0,8.2349805,0,1 | F,0,0,1,0,0,0,1 @ F,0,0,1,0,0,0,1 @ F,0,0,1,0,0,0,1 @ F,0,0,1,0,0,0,1 @ F,0,0,1,0,0,0,1 @ F,0,0,1,0,0,0,1 @ F,0,0,1,0,0,0,1 @ F,0,0,1,0,0,0,1 @ F,0,0,1,0,0,0,1 | F,0,0,1,0,0,0,1 @ F,0,0,1,0,0,0,1 @ F,0,0,1,0,0,0,1 @ F,0,0,1,0,0,0,1 @ F,0,0,1,0,0,0,1 @ F,0,0,1,0,0,0,1 @ F,0,0,1,0,0,0,1 @ F,0,0,1,0,0,0,1 @ F,0,0,1,0,0,0,1 | F,0,0,1,0,0,0,1 @ F,0,0,1,0,0,0,1 @ F,0,0,1,0,0,0,1 @ F,0,0,1,0,0,0,1 @ F,0,0,1,0,0,0,1 @ F,0,1,1,0,8.2349805,0,1 @ F,0,1,1,0,8.2349805,0,1 @ F,0,0,1,0,0,0,1 @ F,0,0,1,0,0,0,1 @ F,0,0,1,0,0,0,1 @ F,0,0,1,0,0,0,1 @ F,0,0,1,0,0,0,1 @ F,0,0,1,0,0,0,1 @ F,0,0,1,0,0,0,1 @ F,0,0,1,0,0,0,1 @ F,0,0,1,0,0,0,1 @ F,0,0,1,0,0,0,1 @ F,0,0,1,0,0,0,1 @ F,0,0,1,0,0,0,1 @ F,0,0,1,0,0,0,1 @ F,0,0,1,0,0,0,1 @ F,0,0,1,0,0,0,1 @ F,0,0,1,0,0,0,1 @ F,0,0,1,0,0,0,1 @ F,0,0,1,0,0,0,1"
       radius="0"
       unit="px"
       method="auto"
       mode="F"
       chamfer_steps="1"
       flexible="false"
       use_knot_distance="true"
       apply_no_radius="true"
       apply_with_radius="true"
       only_selected="false"
       hide_knots="false" /><linearGradient
       id="linearGradient54"
       inkscape:collect="always"><stop
         style="stop-color:#d1b280;stop-opacity:1;"
         offset="0"
         id="stop54" /><stop
         style="stop-color:#d180b3;stop-opacity:1;"
         offset="1"
         id="stop55" /></linearGradient><inkscape:path-effect
       effect="fillet_chamfer"
       id="path-effect48"
       is_visible="true"
       lpeversion="1"
       nodesatellites_param="F,0,0,1,0,6.9618945,0,1 @ F,0,0,1,0,0,0,1 @ F,0,0,1,0,3.1317649,0,1 @ F,0,0,1,0,0,0,1 @ F,0,0,1,0,0,0,1 @ F,0,0,1,0,0,0,1 @ F,0,0,1,0,0,0,1 @ F,0,0,1,0,0,0,1 @ F,0,0,1,0,0,0,1 @ F,0,0,1,0,0,0,1 @ F,0,0,1,0,13.076017,0,1 @ F,0,0,1,0,0,0,1 @ F,0,0,1,0,3.1317652,0,1 @ F,0,0,1,0,0,0,1 @ F,0,0,1,0,0,0,1 @ F,0,0,1,0,0,0,1 @ F,0,0,1,0,0,0,1 @ F,0,0,1,0,0,0,1 @ F,0,0,1,0,0,0,1 @ F,0,0,1,0,0,0,1"
       radius="0"
       unit="px"
       method="auto"
       mode="F"
       chamfer_steps="1"
       flexible="false"
       use_knot_distance="true"
       apply_no_radius="true"
       apply_with_radius="true"
       only_selected="false"
       hide_knots="false" /><rect
       x="61.29522"
       y="54.680628"
       width="123.91336"
       height="147.72589"
       id="rect1" /><linearGradient
       inkscape:collect="always"
       xlink:href="#linearGradient54"
       id="linearGradient55"
       x1="12.165252"
       y1="66.5354"
       x2="12.165252"
       y2="0.96458197"
       gradientUnits="userSpaceOnUse" /><linearGradient
       inkscape:collect="always"
       xlink:href="#linearGradient56"
       id="linearGradient57"
       x1="35.618378"
       y1="18.232342"
       x2="35.618378"
       y2="46.584137"
       gradientUnits="userSpaceOnUse" /></defs><g
     inkscape:groupmode="layer"
     id="layer1"
     inkscape:label="Layer 1"><path
       d="m 8.8000082,30.650419 v -5.513564 h 4.7155488 v 5.513564 z M 6.3817781,42.548111 H 1.6662295 V 25.136855 h 4.7155486 v 6.698497 h 7.1337789 v 3.844986 H 6.3817781 Z m 7.1337789,-5.634476 v 5.634476 H 8.8000082 v -5.634476 z m 7.297868,-3.578981 h -5.078283 q 0.07255,-3.192063 0.894745,-5.005736 0.84638,-1.837855 2.41823,-2.611688 1.571849,-0.773834 3.89335,-0.773834 0.773834,0 1.765308,0.09673 1.015657,0.07255 1.958766,0.290188 v 6.384127 h -2.926058 l -0.386917,-2.926058 q -0.604557,0 -1.088203,0.145094 -0.459464,0.145094 -0.773834,0.604557 -0.31437,0.435282 -0.483646,1.354209 -0.169276,0.918928 -0.193458,2.442412 z m -5.078283,1.209115 h 5.078283 q 0.120911,2.466595 1.039839,3.409705 0.918927,0.918927 2.756782,0.918927 0.580375,0 1.112386,-0.07255 0.53201,-0.07255 1.136568,-0.169276 v 3.820804 q -0.701287,0.169276 -1.692761,0.241823 -0.991475,0.09673 -1.765308,0.09673 -3.99008,0 -5.77957,-2.079678 -1.765308,-2.079678 -1.886219,-6.166487 z m 17.381869,-9.600373 h 5.102466 l 4.038444,17.604715 h -5.005736 l -0.266006,-1.136568 h -2.248954 l 0.652922,-3.748257 h 0.725469 z m 0.169276,17.604715 h -5.054101 l 4.014262,-15.984501 2.248954,9.431098 z m 15.544038,-5.320106 h -4.715548 v -12.09115 h 4.715548 z m -4.715548,1.209115 h 10.059837 l -0.749651,4.110991 h -9.310186 z m 15.906751,-5.102466 h -5.078283 q 0.07255,-3.192063 0.894745,-5.005736 0.84638,-1.837855 2.41823,-2.611688 1.571849,-0.773834 3.89335,-0.773834 0.773834,0 1.765308,0.09673 1.015657,0.07255 1.958767,0.290188 v 6.384127 h -2.926059 l -0.386917,-2.926058 q -0.604557,0 -1.088203,0.145094 -0.459464,0.145094 -0.773834,0.604557 -0.31437,0.435282 -0.483646,1.354209 -0.169276,0.918928 -0.193458,2.442412 z m -5.078283,1.209115 h 5.078283 q 0.120911,2.466595 1.039839,3.409705 0.918927,0.918927 2.756782,0.918927 0.580375,0 1.112386,-0.07255 0.53201,-0.07255 1.136568,-0.169276 v 3.820804 q -0.701287,0.169276 -1.692761,0.241823 -0.991474,0.09673 -1.765308,0.09673 -3.99008,0 -5.77957,-2.079678 -1.765308,-2.079678 -1.886219,-6.166487 z"
       id="text51"
       style="font-size:24.1823px;line-height:1;font-family:'Protest Guerrilla';-inkscape-font-specification:'Protest Guerrilla';letter-spacing:0.647738px;word-spacing:1.61935px;fill:url(#linearGradient57);stroke-width:1.85208331;stroke-linecap:round;stroke-linejoin:round;paint-order:stroke fill markers;fill-opacity:1;stroke:#000000;stroke-opacity:1;stroke-dasharray:none"
       aria-label="HCALC" /><path
       id="rect53"
       style="opacity:1;fill:url(#linearGradient55);fill-opacity:1;stroke:#000000;stroke-width:1.85208331;stroke-linecap:round;stroke-linejoin:round;stroke-miterlimit:4;stroke-dasharray:none;stroke-dashoffset:0;stroke-opacity:1;paint-order:stroke fill markers"
       d="M 1.3146484,9.5496289 V 22.993945 h 5.3417928 1.8691365 7.1323813 v 2.968811 c 0.670933,-0.891332 1.451333,-1.679239 2.443778,-2.167826 1.422997,-0.700553 3.05371,-0.994255 4.839498,-0.994255 0.588392,0 1.226731,0.03578 1.918229,0.101803 0.0036,4e-4 0.0062,0.0017 0.0098,0.0021 0.778473,0.0561 1.538433,0.166923 2.27738,0.337447 l 1.661914,0.382922 v 7.830013 c 0.724759,-2.884725 1.450271,-5.769275 2.174028,-8.654252 h 2.570385 6.372738 l 2.044836,8.912118 v -8.718848 h 9.002035 v 13.300997 h 2.082043 c -0.231989,-1.88905 -0.472481,-5.740481 0.831994,-8.851656 l 0.0021,-0.0057 0.0021,-0.0062 c 0.7273,-1.579283 1.905617,-2.890955 3.419946,-3.63647 1.422996,-0.700553 3.053709,-0.994255 4.839498,-0.994255 0.588391,0 1.226731,0.03578 1.918229,0.101803 0.0036,4e-4 0.0062,0.0017 0.0098,0.0021 0.778475,0.0561 1.538433,0.166923 2.277381,0.337447 l 0.06305,0.01447 V 9.5496289 A 8.2349805,8.2349805 45 0 0 58.183741,1.3146484 H 9.5496289 A 8.2349805,8.2349805 135 0 0 1.3146484,9.5496289 Z m 21.6343386,24.3077351 -0.0057,0.36897 0.0098,0.212907 c 0.06773,1.381692 0.431938,1.998445 0.431498,2.001945 0.110142,0.107983 0.367657,0.287321 1.224731,0.287321 0.297616,0 0.572944,-0.01844 0.824239,-0.05271 0.336017,-0.04582 0.696984,-0.100064 1.085722,-0.162264 l 1.060917,-0.170015 0.624768,-2.486154 z m 39.207425,0 -0.0062,0.3514 0.01188,0.230477 c 0.06773,1.38169 0.430387,1.998445 0.429948,2.001945 0.110139,0.107982 0.369192,0.287321 1.226282,0.287321 0.297616,0 0.570876,-0.01844 0.822172,-0.05271 0.336017,-0.04582 0.69905,-0.100064 1.087789,-0.162264 l 0.690397,-0.110071 v -2.546098 z m -46.498453,7.619174 v 3.21479 H 8.5255777 6.6564412 1.3146484 v 13.492375 a 8.2349805,8.2349805 45 0 0 8.2349805,8.234981 H 58.183703 a 8.2349805,8.2349805 135 0 0 8.234981,-8.234981 V 44.563688 c -0.578467,0.129316 -1.193572,0.214214 -1.875854,0.264583 -0.698101,0.06707 -1.340011,0.10542 -1.933216,0.10542 -2.817105,0 -5.283202,-0.769523 -6.992338,-2.462899 l -0.404109,2.220536 h -10.263973 -2.97863 -6.417696 l -0.265617,-1.136364 h -0.0062 l -0.21084,1.136364 h -8.789127 c -0.316367,0.04361 -0.60141,0.111413 -0.947229,0.136943 -0.697297,0.06695 -1.341114,0.10542 -1.933732,0.10542 -3.032389,0 -5.697555,-0.842786 -7.404199,-2.826184 l -0.0036,-0.0041 -0.0041,-0.0057 c -0.150336,-0.177108 -0.19557,-0.432431 -0.330212,-0.62115 z"
       inkscape:path-effect="#path-effect55"
       inkscape:original-d="M 1.3146484,1.3146484 V 22.993945 h 5.3417928 1.8691365 7.1323813 v 2.968811 c 0.670933,-0.891332 1.451333,-1.679239 2.443778,-2.167826 1.422997,-0.700553 3.05371,-0.994255 4.839498,-0.994255 0.588392,0 1.226731,0.03578 1.918229,0.101803 0.0036,4e-4 0.0062,0.0017 0.0098,0.0021 0.778473,0.0561 1.538433,0.166923 2.27738,0.337447 l 1.661914,0.382922 v 7.830013 c 0.724759,-2.884725 1.450271,-5.769275 2.174028,-8.654252 h 2.570385 6.372738 l 2.044836,8.912118 v -8.718848 h 9.002035 v 13.300997 h 2.082043 c -0.231989,-1.88905 -0.472481,-5.740481 0.831994,-8.851656 l 0.0021,-0.0057 0.0021,-0.0062 c 0.7273,-1.579283 1.905617,-2.890955 3.419946,-3.63647 1.422996,-0.700553 3.053709,-0.994255 4.839498,-0.994255 0.588391,0 1.226731,0.03578 1.918229,0.101803 0.0036,4e-4 0.0062,0.0017 0.0098,0.0021 0.778475,0.0561 1.538433,0.166923 2.277381,0.337447 l 0.06305,0.01447 V 1.3146484 Z m 21.6343386,32.5427156 -0.0057,0.36897 0.0098,0.212907 c 0.06773,1.381692 0.431938,1.998445 0.431498,2.001945 0.110142,0.107983 0.367657,0.287321 1.224731,0.287321 0.297616,0 0.572944,-0.01844 0.824239,-0.05271 0.336017,-0.04582 0.696984,-0.100064 1.085722,-0.162264 l 1.060917,-0.170015 0.624768,-2.486154 z m 39.207425,0 -0.0062,0.3514 0.01188,0.230477 c 0.06773,1.38169 0.430387,1.998445 0.429948,2.001945 0.110139,0.107982 0.369192,0.287321 1.226282,0.287321 0.297616,0 0.570876,-0.01844 0.822172,-0.05271 0.336017,-0.04582 0.69905,-0.100064 1.087789,-0.162264 l 0.690397,-0.110071 v -2.546098 z m -46.498453,7.619174 v 3.21479 H 8.5255777 6.6564412 1.3146484 V 66.418684 H 66.418684 V 44.563688 c -0.578467,0.129316 -1.193572,0.214214 -1.875854,0.264583 -0.698101,0.06707 -1.340011,0.10542 -1.933216,0.10542 -2.817105,0 -5.283202,-0.769523 -6.992338,-2.462899 l -0.404109,2.220536 h -10.263973 -2.97863 -6.417696 l -0.265617,-1.136364 h -0.0062 l -0.21084,1.136364 h -8.789127 c -0.316367,0.04361 -0.60141,0.111413 -0.947229,0.136943 -0.697297,0.06695 -1.341114,0.10542 -1.933732,0.10542 -3.032389,0 -5.697555,-0.842786 -7.404199,-2.826184 l -0.0036,-0.0041 -0.0041,-0.0057 c -0.150336,-0.177108 -0.19557,-0.432431 -0.330212,-0.62115 z"
       sodipodi:nodetypes="ccccccssccccccccccccccccssccccccccccssccccccccsscccccccccccccsccccccccccsccccc" /></g></svg>
